<?xml version="1.0" encoding="iso-8859-1"?>
<!-- Uploaded to: SVG Repo, www.svgrepo.com, Generator: SVG Repo Mixer Tools -->
<svg fill="#000000" height="800px" width="800px" version="1.1" id="Layer_1" xmlns="http://www.w3.org/2000/svg" xmlns:xlink="http://www.w3.org/1999/xlink" 
	 viewBox="0 0 491.52 491.52" xml:space="preserve">
<g>
	<g>
		<polygon points="306.635,305.747 223.06,389.328 184.89,351.157 170.41,365.638 223.06,418.287 321.115,320.227 		"/>
	</g>
</g>
<g>
	<g>
		<path d="M421.79,157.732c4.385-14.08,6.16-28.73,5.285-43.7C423.43,51.658,370.49,0.502,309.07,0.002
			c-50.145-0.005-94.725,31.5-112.255,77.975c-18.18-15.045-41.65-22.405-65.565-20.04c-34.04,3.36-63.7,27.21-75.57,60.76
			c-5.055,14.285-4.285,34.17-3.41,44.54C19.87,184.982,0,221.893,0,261.117c0,63.786,51.004,115.764,114.356,117.588
			c9.829,63.775,64.92,112.813,131.404,112.813c73.405,0,133.12-59.715,133.12-133.12c0-1.988-0.212-3.923-0.299-5.889
			c34.303,1.81,58.602-11.793,73.414-24.446c27.305-23.325,39.525-56.96,39.525-79.945
			C491.52,204.443,462.33,167.653,421.79,157.732z M245.76,471.037c-62.11,0-112.64-50.53-112.64-112.64s50.53-112.64,112.64-112.64
			s112.64,50.53,112.64,112.64S307.87,471.037,245.76,471.037z M438.69,312.492c-12.321,10.531-32.965,21.809-62.498,19.249
			c-12.381-60.673-66.154-106.464-130.432-106.464c-73.318,0-132.964,59.576-133.107,132.861
			c-51.261-2.681-92.173-45.105-92.173-97.021c0-34.245,18.335-66.355,47.85-83.805l5.825-3.45l-0.885-6.71
			c-0.985-7.45-2.59-29.45,1.72-41.625c9.23-26.095,32.105-44.625,58.27-47.21c23.165-2.3,45.78,7.27,60.48,25.575l13.475,16.78
			l4.52-21.04c9.88-45.985,50.335-79.155,96.38-79.155c0.26,0,0.525,0,0.785,0.005c50.86,0.415,94.7,42.915,97.73,94.745
			c0.94,16.09-1.785,31.73-8.105,46.475l-5.515,12.865l13.93,1.36c36.54,3.575,64.1,34.61,64.1,72.19
			C471.04,265.813,460.915,293.508,438.69,312.492z"/>
	</g>
</g>
</svg>