<svg xmlns="http://www.w3.org/2000/svg" xmlns:xlink="http://www.w3.org/1999/xlink" width="200" zoomAndPan="magnify" viewBox="0 0 150 36.000001" height="48" preserveAspectRatio="xMidYMid meet" version="1.0"><defs><g/><clipPath id="fd09f6c692"><path d="M 5 10 L 22 10 L 22 34.417969 L 5 34.417969 Z M 5 10 " clip-rule="nonzero"/></clipPath><clipPath id="22b7591c8d"><path d="M 2.027344 10 L 18 10 L 18 34.417969 L 2.027344 34.417969 Z M 2.027344 10 " clip-rule="nonzero"/></clipPath><clipPath id="be39ccb739"><path d="M 8 10 L 27 10 L 27 34.417969 L 8 34.417969 Z M 8 10 " clip-rule="nonzero"/></clipPath><clipPath id="b7df7990f4"><path d="M 11 10 L 31 10 L 31 34.417969 L 11 34.417969 Z M 11 10 " clip-rule="nonzero"/></clipPath></defs><path fill="#5b9b37" d="M 17.003906 -5.71875 L 5.976562 17.734375 L 4.058594 17.734375 L 4.460938 16.824219 L 14.425781 -5.71875 Z M 17.003906 -5.71875 " fill-opacity="1" fill-rule="nonzero"/><path fill="#5b9b37" d="M 32.441406 -5.71875 L 23.070312 8.96875 L 20.910156 8.96875 L 29.867188 -5.71875 Z M 32.441406 -5.71875 " fill-opacity="1" fill-rule="nonzero"/><path fill="#5b9b37" d="M 22.148438 -5.71875 L 9.808594 17.734375 L 7.890625 17.734375 L 8.34375 16.824219 L 19.574219 -5.71875 Z M 22.148438 -5.71875 " fill-opacity="1" fill-rule="nonzero"/><path fill="#5b9b37" d="M 27.296875 -5.71875 L 19.109375 8.34375 L 18.746094 8.96875 L 16.582031 8.96875 L 24.722656 -5.71875 Z M 27.296875 -5.71875 " fill-opacity="1" fill-rule="nonzero"/><g clip-path="url(#fd09f6c692)"><path fill="#5b9b37" d="M 21.949219 10.8125 L 6.851562 34.417969 L 5.382812 34.417969 L 19.820312 10.8125 Z M 21.949219 10.8125 " fill-opacity="1" fill-rule="nonzero"/></g><g clip-path="url(#22b7591c8d)"><path fill="#5b9b37" d="M 17.691406 10.8125 L 3.914062 34.417969 L 2.445312 34.417969 L 15.558594 10.8125 Z M 17.691406 10.8125 " fill-opacity="1" fill-rule="nonzero"/></g><g clip-path="url(#be39ccb739)"><path fill="#5b9b37" d="M 26.210938 10.8125 L 9.789062 34.417969 L 8.320312 34.417969 L 24.082031 10.8125 Z M 26.210938 10.8125 " fill-opacity="1" fill-rule="nonzero"/></g><g clip-path="url(#b7df7990f4)"><path fill="#5b9b37" d="M 30.472656 10.8125 L 12.730469 34.417969 L 11.261719 34.417969 L 28.34375 10.8125 Z M 30.472656 10.8125 " fill-opacity="1" fill-rule="nonzero"/></g><g fill="#1f242c" fill-opacity="1"><g transform="translate(40.123991, 24.665002)"><g><path d="M 3.265625 -5.8125 C 3.515625 -4.488281 4.007812 -3.441406 4.75 -2.671875 C 5.488281 -1.910156 6.359375 -1.53125 7.359375 -1.53125 C 8.023438 -1.53125 8.515625 -1.71875 8.828125 -2.09375 C 9.140625 -2.476562 9.296875 -2.898438 9.296875 -3.359375 C 9.296875 -4.035156 9 -4.601562 8.40625 -5.0625 C 7.820312 -5.53125 6.976562 -6.03125 5.875 -6.5625 C 4.394531 -7.289062 3.273438 -8.09375 2.515625 -8.96875 C 1.765625 -9.851562 1.390625 -10.925781 1.390625 -12.1875 C 1.390625 -13.113281 1.617188 -13.914062 2.078125 -14.59375 C 2.546875 -15.28125 3.179688 -15.804688 3.984375 -16.171875 C 4.785156 -16.535156 5.6875 -16.71875 6.6875 -16.71875 C 7.195312 -16.71875 7.753906 -16.664062 8.359375 -16.5625 C 8.972656 -16.457031 9.460938 -16.304688 9.828125 -16.109375 L 11.828125 -16.71875 C 12.109375 -16.226562 12.285156 -15.550781 12.359375 -14.6875 C 12.441406 -13.832031 12.484375 -12.847656 12.484375 -11.734375 L 12.484375 -11.375 L 10.53125 -11.375 C 9.96875 -13.675781 8.859375 -14.828125 7.203125 -14.828125 C 6.566406 -14.828125 6.09375 -14.648438 5.78125 -14.296875 C 5.46875 -13.941406 5.3125 -13.472656 5.3125 -12.890625 C 5.3125 -12.421875 5.4375 -12.007812 5.6875 -11.65625 C 5.9375 -11.3125 6.253906 -11.015625 6.640625 -10.765625 C 7.023438 -10.523438 7.539062 -10.25 8.1875 -9.9375 C 9.1875 -9.445312 10.019531 -8.988281 10.6875 -8.5625 C 11.351562 -8.144531 11.929688 -7.582031 12.421875 -6.875 C 12.910156 -6.175781 13.15625 -5.347656 13.15625 -4.390625 C 13.15625 -3.503906 12.929688 -2.703125 12.484375 -1.984375 C 12.046875 -1.273438 11.40625 -0.707031 10.5625 -0.28125 C 9.71875 0.144531 8.738281 0.359375 7.625 0.359375 C 6.351562 0.359375 5.085938 0.0859375 3.828125 -0.453125 L 2 0.359375 C 1.707031 -0.242188 1.445312 -1.175781 1.21875 -2.4375 C 1 -3.707031 0.890625 -4.832031 0.890625 -5.8125 Z M 3.265625 -5.8125 "/></g></g></g><g fill="#1f242c" fill-opacity="1"><g transform="translate(53.175327, 24.665002)"><g><path d="M 12.09375 -2.765625 C 12.09375 -2.390625 12.1875 -2.070312 12.375 -1.8125 C 12.570312 -1.5625 12.851562 -1.421875 13.21875 -1.390625 L 13.21875 -0.734375 C 12.96875 -0.453125 12.578125 -0.226562 12.046875 -0.0625 C 11.523438 0.09375 10.992188 0.171875 10.453125 0.171875 C 9.921875 0.171875 9.460938 0.03125 9.078125 -0.25 C 8.703125 -0.539062 8.453125 -0.9375 8.328125 -1.4375 C 7.578125 -0.363281 6.5 0.171875 5.09375 0.171875 C 4 0.171875 3.144531 -0.164062 2.53125 -0.84375 C 1.914062 -1.519531 1.609375 -2.4375 1.609375 -3.59375 L 1.609375 -10.078125 C 1.609375 -10.347656 1.507812 -10.535156 1.3125 -10.640625 C 1.113281 -10.753906 0.828125 -10.8125 0.453125 -10.8125 L 0.453125 -11.859375 C 0.679688 -12.046875 1.128906 -12.234375 1.796875 -12.421875 C 2.472656 -12.609375 3.1875 -12.703125 3.9375 -12.703125 C 4.382812 -12.703125 4.707031 -12.671875 4.90625 -12.609375 C 5.113281 -12.554688 5.253906 -12.441406 5.328125 -12.265625 C 5.410156 -12.097656 5.453125 -11.828125 5.453125 -11.453125 L 5.453125 -3.515625 C 5.453125 -3.023438 5.535156 -2.65625 5.703125 -2.40625 C 5.867188 -2.164062 6.140625 -2.046875 6.515625 -2.046875 C 6.828125 -2.046875 7.132812 -2.144531 7.4375 -2.34375 C 7.75 -2.539062 8.015625 -2.78125 8.234375 -3.0625 L 8.234375 -10.078125 C 8.234375 -10.566406 7.796875 -10.8125 6.921875 -10.8125 L 6.921875 -11.859375 C 7.171875 -12.054688 7.628906 -12.242188 8.296875 -12.421875 C 8.960938 -12.609375 9.695312 -12.703125 10.5 -12.703125 C 11.144531 -12.703125 11.570312 -12.625 11.78125 -12.46875 C 11.988281 -12.320312 12.09375 -11.984375 12.09375 -11.453125 Z M 12.09375 -2.765625 "/></g></g></g><g fill="#1f242c" fill-opacity="1"><g transform="translate(65.731032, 24.665002)"><g><path d="M 13.984375 -0.640625 C 13.742188 -0.398438 13.320312 -0.207031 12.71875 -0.0625 C 12.113281 0.0703125 11.535156 0.140625 10.984375 0.140625 C 10.304688 0.140625 9.804688 0.015625 9.484375 -0.234375 C 9.160156 -0.484375 9 -0.882812 9 -1.4375 L 9 -8.8125 C 9 -9.425781 8.863281 -9.863281 8.59375 -10.125 C 8.320312 -10.394531 7.96875 -10.53125 7.53125 -10.53125 C 6.882812 -10.53125 6.34375 -10.269531 5.90625 -9.75 L 5.90625 -2.546875 C 5.90625 -2.085938 6.003906 -1.753906 6.203125 -1.546875 C 6.398438 -1.347656 6.734375 -1.25 7.203125 -1.25 C 7.203125 -0.78125 7.019531 -0.363281 6.65625 0 L 1.296875 0 C 0.921875 -0.375 0.734375 -0.789062 0.734375 -1.25 C 1.203125 -1.25 1.535156 -1.347656 1.734375 -1.546875 C 1.941406 -1.753906 2.046875 -2.085938 2.046875 -2.546875 L 2.046875 -9.4375 C 2.046875 -9.863281 1.925781 -10.164062 1.6875 -10.34375 C 1.457031 -10.53125 1.050781 -10.625 0.46875 -10.625 L 0.46875 -11.6875 C 0.976562 -11.96875 1.691406 -12.222656 2.609375 -12.453125 C 3.523438 -12.691406 4.222656 -12.8125 4.703125 -12.8125 C 5.054688 -12.8125 5.332031 -12.695312 5.53125 -12.46875 C 5.726562 -12.25 5.84375 -11.820312 5.875 -11.1875 C 6.289062 -11.695312 6.800781 -12.09375 7.40625 -12.375 C 8.019531 -12.664062 8.710938 -12.8125 9.484375 -12.8125 C 10.617188 -12.8125 11.457031 -12.523438 12 -11.953125 C 12.539062 -11.378906 12.8125 -10.441406 12.8125 -9.140625 L 12.8125 -2.6875 C 12.8125 -1.914062 13.191406 -1.460938 13.953125 -1.328125 Z M 13.984375 -0.640625 "/></g></g></g><g fill="#1f242c" fill-opacity="1"><g transform="translate(79.207192, 24.665002)"><g><path d="M 7.21875 -16.640625 C 9.644531 -16.640625 11.378906 -16.195312 12.421875 -15.3125 C 13.460938 -14.4375 13.984375 -13.101562 13.984375 -11.3125 C 13.984375 -10.257812 13.722656 -9.316406 13.203125 -8.484375 C 12.679688 -7.660156 11.890625 -7.007812 10.828125 -6.53125 C 9.773438 -6.0625 8.488281 -5.828125 6.96875 -5.828125 L 5.96875 -5.828125 L 5.96875 -3.75 C 5.96875 -3.125 6.035156 -2.648438 6.171875 -2.328125 C 6.316406 -2.015625 6.566406 -1.800781 6.921875 -1.6875 C 7.273438 -1.570312 7.816406 -1.515625 8.546875 -1.515625 C 8.546875 -1.234375 8.5 -0.957031 8.40625 -0.6875 C 8.3125 -0.414062 8.1875 -0.1875 8.03125 0 L 1.15625 0 C 0.976562 -0.1875 0.84375 -0.414062 0.75 -0.6875 C 0.65625 -0.957031 0.609375 -1.234375 0.609375 -1.515625 C 1.148438 -1.515625 1.53125 -1.601562 1.75 -1.78125 C 1.976562 -1.957031 2.09375 -2.257812 2.09375 -2.6875 L 2.09375 -13.78125 C 2.09375 -14.226562 1.976562 -14.539062 1.75 -14.71875 C 1.53125 -14.894531 1.148438 -14.984375 0.609375 -14.984375 C 0.609375 -15.523438 0.785156 -16.023438 1.140625 -16.484375 C 2.191406 -16.484375 3.625 -16.519531 5.4375 -16.59375 C 6.34375 -16.625 6.9375 -16.640625 7.21875 -16.640625 Z M 9.875 -11.375 C 9.875 -12.382812 9.640625 -13.203125 9.171875 -13.828125 C 8.703125 -14.460938 7.925781 -14.78125 6.84375 -14.78125 C 6.5 -14.78125 6.207031 -14.75 5.96875 -14.6875 L 5.96875 -7.765625 C 6.113281 -7.734375 6.320312 -7.71875 6.59375 -7.71875 C 7.894531 -7.71875 8.765625 -8.0625 9.203125 -8.75 C 9.648438 -9.445312 9.875 -10.320312 9.875 -11.375 Z M 9.875 -11.375 "/></g></g></g><g fill="#1f242c" fill-opacity="1"><g transform="translate(92.470943, 24.665002)"><g><path d="M 6.328125 0.3125 C 4.597656 0.3125 3.210938 -0.234375 2.171875 -1.328125 C 1.128906 -2.421875 0.609375 -3.984375 0.609375 -6.015625 C 0.609375 -7.460938 0.851562 -8.695312 1.34375 -9.71875 C 1.84375 -10.75 2.539062 -11.519531 3.4375 -12.03125 C 4.34375 -12.550781 5.382812 -12.8125 6.5625 -12.8125 C 7.695312 -12.8125 8.691406 -12.5625 9.546875 -12.0625 C 10.410156 -11.570312 11.082031 -10.847656 11.5625 -9.890625 C 12.039062 -8.929688 12.28125 -7.765625 12.28125 -6.390625 C 12.28125 -4.960938 12.03125 -3.742188 11.53125 -2.734375 C 11.039062 -1.734375 10.34375 -0.972656 9.4375 -0.453125 C 8.539062 0.0546875 7.503906 0.3125 6.328125 0.3125 Z M 6.515625 -1.390625 C 7.066406 -1.390625 7.472656 -1.703125 7.734375 -2.328125 C 8.003906 -2.960938 8.140625 -4.128906 8.140625 -5.828125 C 8.140625 -7.265625 8.066406 -8.367188 7.921875 -9.140625 C 7.785156 -9.910156 7.59375 -10.4375 7.34375 -10.71875 C 7.09375 -11 6.769531 -11.140625 6.375 -11.140625 C 5.820312 -11.140625 5.40625 -10.820312 5.125 -10.1875 C 4.851562 -9.5625 4.71875 -8.382812 4.71875 -6.65625 C 4.71875 -5.238281 4.785156 -4.148438 4.921875 -3.390625 C 5.066406 -2.628906 5.269531 -2.101562 5.53125 -1.8125 C 5.789062 -1.53125 6.117188 -1.390625 6.515625 -1.390625 Z M 6.515625 -1.390625 "/></g></g></g><g fill="#1f242c" fill-opacity="1"><g transform="translate(104.413011, 24.665002)"><g><path d="M 19 -12.53125 C 19.320312 -12.238281 19.484375 -11.769531 19.484375 -11.125 C 19.023438 -11.125 18.671875 -11.039062 18.421875 -10.875 C 18.179688 -10.71875 18.003906 -10.4375 17.890625 -10.03125 L 15.796875 -2.40625 C 15.609375 -1.726562 15.4375 -1.21875 15.28125 -0.875 C 15.125 -0.53125 14.898438 -0.269531 14.609375 -0.09375 C 14.328125 0.0820312 13.9375 0.171875 13.4375 0.171875 L 11.5625 0.171875 L 9.34375 -6.921875 L 8.078125 -2.359375 C 7.835938 -1.492188 7.601562 -0.882812 7.375 -0.53125 C 7.144531 -0.175781 6.785156 0.046875 6.296875 0.140625 L 6.296875 0.171875 L 3.890625 0.171875 L 0.6875 -9.890625 C 0.53125 -10.347656 0.359375 -10.664062 0.171875 -10.84375 C -0.00390625 -11.03125 -0.289062 -11.125 -0.6875 -11.125 C -0.6875 -11.738281 -0.519531 -12.207031 -0.1875 -12.53125 L 5.125 -12.53125 C 5.300781 -12.363281 5.4375 -12.148438 5.53125 -11.890625 C 5.625 -11.628906 5.671875 -11.375 5.671875 -11.125 C 5.335938 -11.125 5.066406 -11.03125 4.859375 -10.84375 C 4.660156 -10.664062 4.5625 -10.40625 4.5625 -10.0625 C 4.5625 -10 4.570312 -9.914062 4.59375 -9.8125 C 4.613281 -9.707031 4.632812 -9.625 4.65625 -9.5625 L 5.265625 -6.34375 L 5.96875 -3.015625 L 7.015625 -6.34375 L 7.703125 -8.8125 C 7.929688 -9.738281 8.164062 -10.410156 8.40625 -10.828125 C 8.644531 -11.242188 9.015625 -11.453125 9.515625 -11.453125 L 11.328125 -11.421875 L 12.5625 -6.375 L 13.59375 -3.109375 L 14.125 -6.375 L 14.890625 -9.703125 C 14.953125 -9.941406 14.984375 -10.15625 14.984375 -10.34375 C 14.984375 -10.625 14.90625 -10.820312 14.75 -10.9375 C 14.59375 -11.0625 14.359375 -11.125 14.046875 -11.125 C 14.046875 -11.769531 14.195312 -12.238281 14.5 -12.53125 Z M 19 -12.53125 "/></g></g></g><g fill="#1f242c" fill-opacity="1"><g transform="translate(122.255454, 24.665002)"><g><path d="M 7.5625 -2.40625 C 8.550781 -2.40625 9.46875 -2.722656 10.3125 -3.359375 C 10.4375 -3.222656 10.546875 -3.03125 10.640625 -2.78125 C 10.742188 -2.53125 10.796875 -2.3125 10.796875 -2.125 C 10.796875 -1.84375 10.601562 -1.515625 10.21875 -1.140625 C 9.84375 -0.773438 9.320312 -0.457031 8.65625 -0.1875 C 7.988281 0.0820312 7.234375 0.21875 6.390625 0.21875 C 5.234375 0.21875 4.21875 -0.03125 3.34375 -0.53125 C 2.46875 -1.039062 1.789062 -1.773438 1.3125 -2.734375 C 0.84375 -3.691406 0.609375 -4.828125 0.609375 -6.140625 C 0.609375 -7.472656 0.863281 -8.644531 1.375 -9.65625 C 1.894531 -10.664062 2.601562 -11.441406 3.5 -11.984375 C 4.394531 -12.523438 5.410156 -12.796875 6.546875 -12.796875 C 7.972656 -12.796875 9.109375 -12.378906 9.953125 -11.546875 C 10.804688 -10.710938 11.234375 -9.554688 11.234375 -8.078125 C 11.234375 -7.378906 11.125 -6.828125 10.90625 -6.421875 C 10.6875 -6.023438 10.296875 -5.828125 9.734375 -5.828125 L 4.625 -5.828125 C 4.71875 -3.546875 5.695312 -2.40625 7.5625 -2.40625 Z M 6.390625 -11.171875 C 5.910156 -11.171875 5.503906 -10.894531 5.171875 -10.34375 C 4.835938 -9.800781 4.65625 -8.894531 4.625 -7.625 L 7.015625 -7.625 C 7.265625 -7.625 7.425781 -7.707031 7.5 -7.875 C 7.582031 -8.050781 7.625 -8.320312 7.625 -8.6875 C 7.625 -9.613281 7.515625 -10.257812 7.296875 -10.625 C 7.078125 -10.988281 6.773438 -11.171875 6.390625 -11.171875 Z M 6.390625 -11.171875 "/></g></g></g><g fill="#1f242c" fill-opacity="1"><g transform="translate(133.15906, 24.665002)"><g><path d="M 8.6875 -12.8125 C 9.394531 -12.8125 9.914062 -12.628906 10.25 -12.265625 C 10.582031 -11.910156 10.75 -11.421875 10.75 -10.796875 C 10.75 -10.117188 10.570312 -9.566406 10.21875 -9.140625 C 9.863281 -8.710938 9.382812 -8.5 8.78125 -8.5 C 8.257812 -8.5 7.835938 -8.644531 7.515625 -8.9375 C 7.191406 -9.238281 7.03125 -9.597656 7.03125 -10.015625 C 7.03125 -10.265625 7.054688 -10.457031 7.109375 -10.59375 C 6.535156 -10.457031 6.054688 -10.21875 5.671875 -9.875 L 5.671875 -2.78125 C 5.671875 -2.394531 5.722656 -2.097656 5.828125 -1.890625 C 5.941406 -1.679688 6.160156 -1.523438 6.484375 -1.421875 C 6.804688 -1.328125 7.289062 -1.28125 7.9375 -1.28125 C 7.9375 -0.988281 7.90625 -0.742188 7.84375 -0.546875 C 7.78125 -0.359375 7.660156 -0.175781 7.484375 0 L 1.1875 0 C 0.820312 -0.363281 0.640625 -0.789062 0.640625 -1.28125 C 1.097656 -1.28125 1.421875 -1.375 1.609375 -1.5625 C 1.804688 -1.757812 1.90625 -2.097656 1.90625 -2.578125 L 1.90625 -9.390625 C 1.90625 -9.816406 1.789062 -10.113281 1.5625 -10.28125 C 1.34375 -10.457031 0.941406 -10.546875 0.359375 -10.546875 L 0.359375 -11.609375 C 0.878906 -11.910156 1.566406 -12.175781 2.421875 -12.40625 C 3.273438 -12.632812 3.941406 -12.75 4.421875 -12.75 C 4.796875 -12.75 5.0625 -12.613281 5.21875 -12.34375 C 5.375 -12.082031 5.453125 -11.550781 5.453125 -10.75 C 5.734375 -11.28125 6.179688 -11.753906 6.796875 -12.171875 C 7.410156 -12.597656 8.039062 -12.8125 8.6875 -12.8125 Z M 8.6875 -12.8125 "/></g></g></g></svg>