<svg width="136" height="30" viewBox="0 0 136 30" fill="none" xmlns="http://www.w3.org/2000/svg">
<path d="M 23.682 12.11 L 21.338 12.11 A 11.898 11.898 0 0 0 19.855 12.195 Q 18.25 12.398 17.364 13.08 A 2.808 2.808 0 0 0 16.943 13.477 A 3.887 3.887 0 0 0 16.278 14.644 Q 15.772 15.982 15.772 18.165 L 15.772 67.432 A 5.508 5.508 0 0 1 15.731 68.128 Q 15.635 68.879 15.312 69.294 A 1.343 1.343 0 0 1 15.161 69.459 Q 14.604 69.971 13.336 70.016 A 7.074 7.074 0 0 1 13.086 70.02 L 2.686 70.02 A 6.023 6.023 0 0 1 1.968 69.981 Q 1.059 69.871 0.61 69.459 A 1.556 1.556 0 0 1 0.239 68.91 Q 0.033 68.425 0.005 67.676 A 6.493 6.493 0 0 1 0 67.432 L 0 13.087 A 43.193 43.193 0 0 1 0.088 10.233 Q 0.276 7.409 0.862 5.48 A 12.429 12.429 0 0 1 0.903 5.347 A 6.944 6.944 0 0 1 2.207 2.926 A 6.531 6.531 0 0 1 4.419 1.246 A 10.31 10.31 0 0 1 6.394 0.563 Q 8.36 0.08 11.132 0.012 A 37.928 37.928 0 0 1 12.061 0.001 L 23.682 0.001 A 57.237 57.237 0 0 1 30.989 0.435 Q 39.364 1.516 44.175 5.287 A 17.195 17.195 0 0 1 44.434 5.494 A 17.397 17.397 0 0 1 50.185 14.497 Q 51.172 17.979 51.172 22.315 A 33.428 33.428 0 0 1 50.695 28.133 Q 49.872 32.783 47.632 36.182 A 21.319 21.319 0 0 1 38.452 44.092 A 28.75 28.75 0 0 1 26.514 46.631 A 4.218 4.218 0 0 1 25.478 46.51 A 3.234 3.234 0 0 1 24.365 45.997 A 13.064 13.064 0 0 1 23.687 45.497 Q 23.344 45.228 22.964 44.901 A 30.589 30.589 0 0 1 22.168 44.19 A 36.577 36.577 0 0 1 21.175 43.236 Q 20.636 42.699 20.052 42.081 A 66.92 66.92 0 0 1 19.336 41.309 A 3.671 3.671 0 0 1 19.054 40.939 Q 18.78 40.521 18.753 40.165 A 1.016 1.016 0 0 1 18.75 40.088 A 1.217 1.217 0 0 1 18.832 39.665 Q 18.97 39.295 19.336 38.868 A 42.95 42.95 0 0 1 21.354 36.731 Q 22.345 35.756 23.271 35.001 A 17.891 17.891 0 0 1 24.854 33.838 Q 25.44 33.448 26.514 33.448 A 7.691 7.691 0 0 0 32.099 31.111 A 9.955 9.955 0 0 0 32.251 30.958 A 7.177 7.177 0 0 0 33.798 28.432 Q 34.574 26.355 34.574 23.329 A 24.385 24.385 0 0 0 34.57 22.901 A 19.643 19.643 0 0 0 34.343 19.965 Q 34.102 18.46 33.607 17.276 A 7.019 7.019 0 0 0 31.616 14.503 Q 29.054 12.393 24.841 12.143 A 19.626 19.626 0 0 0 23.682 12.11 Z M 60.742 50.196 L 60.693 25.391 A 4.535 4.535 0 0 1 60.741 24.711 Q 60.795 24.355 60.911 24.067 A 2.012 2.012 0 0 1 61.182 23.585 A 23.423 23.423 0 0 1 62.988 21.509 Q 64.716 19.727 67.188 17.774 A 3.62 3.62 0 0 1 67.591 17.522 Q 67.799 17.411 67.992 17.352 A 1.428 1.428 0 0 1 68.408 17.286 A 1.716 1.716 0 0 1 69.239 17.506 A 2.419 2.419 0 0 1 69.629 17.774 A 48.286 48.286 0 0 1 71.34 19.147 Q 72.359 20.005 73.169 20.801 A 27.77 27.77 0 0 1 74.639 22.357 A 21.597 21.597 0 0 1 75.635 23.585 Q 76.016 24.08 76.1 24.902 A 4.834 4.834 0 0 1 76.123 25.391 L 76.123 48.829 Q 76.123 58.507 83.13 59.345 A 11.721 11.721 0 0 0 84.522 59.424 A 9.584 9.584 0 0 0 87.62 58.945 A 7.985 7.985 0 0 0 91.162 56.519 Q 93.448 53.852 93.636 49.437 A 18.931 18.931 0 0 0 93.652 48.633 L 93.652 25.391 A 4.535 4.535 0 0 1 93.7 24.711 Q 93.754 24.355 93.87 24.067 A 2.012 2.012 0 0 1 94.141 23.585 A 23.423 23.423 0 0 1 95.947 21.509 Q 97.675 19.727 100.147 17.774 A 3.62 3.62 0 0 1 100.55 17.522 Q 100.758 17.411 100.951 17.352 A 1.428 1.428 0 0 1 101.367 17.286 A 1.716 1.716 0 0 1 102.198 17.506 A 2.419 2.419 0 0 1 102.588 17.774 A 48.286 48.286 0 0 1 104.299 19.147 Q 105.318 20.005 106.128 20.801 A 27.77 27.77 0 0 1 107.598 22.357 A 21.597 21.597 0 0 1 108.594 23.585 Q 108.975 24.08 109.059 24.902 A 4.834 4.834 0 0 1 109.082 25.391 L 109.082 67.774 Q 109.082 68.702 108.447 69.361 A 2.123 2.123 0 0 1 106.927 70.019 A 2.824 2.824 0 0 1 106.836 70.02 L 99.512 70.02 A 4.748 4.748 0 0 1 98.784 69.967 A 3.574 3.574 0 0 1 98.12 69.8 A 2.311 2.311 0 0 1 97.497 69.453 Q 97.265 69.275 97.044 69.028 A 4.133 4.133 0 0 1 96.973 68.946 L 93.945 65.04 L 93.604 65.04 Q 92.822 66.163 91.187 67.628 A 9.49 9.49 0 0 1 89.754 68.671 Q 88.388 69.495 86.45 70.167 Q 83.35 71.241 78.125 71.241 Q 62.102 71.241 60.849 53.36 A 45.282 45.282 0 0 1 60.742 50.196 Z M 162.891 50.196 L 162.842 25.391 A 4.535 4.535 0 0 1 162.89 24.711 Q 162.944 24.355 163.059 24.067 A 2.012 2.012 0 0 1 163.33 23.585 A 23.423 23.423 0 0 1 165.136 21.509 Q 166.864 19.727 169.336 17.774 A 3.62 3.62 0 0 1 169.739 17.522 Q 169.947 17.411 170.14 17.352 A 1.428 1.428 0 0 1 170.557 17.286 A 1.716 1.716 0 0 1 171.388 17.506 A 2.419 2.419 0 0 1 171.777 17.774 A 48.286 48.286 0 0 1 173.488 19.147 Q 174.507 20.005 175.317 20.801 A 27.77 27.77 0 0 1 176.788 22.357 A 21.597 21.597 0 0 1 177.783 23.585 Q 178.164 24.08 178.248 24.902 A 4.834 4.834 0 0 1 178.272 25.391 L 178.272 48.829 Q 178.272 58.507 185.279 59.345 A 11.721 11.721 0 0 0 186.67 59.424 A 9.584 9.584 0 0 0 189.768 58.945 A 7.985 7.985 0 0 0 193.311 56.519 Q 195.597 53.852 195.784 49.437 A 18.931 18.931 0 0 0 195.801 48.633 L 195.801 25.391 A 4.535 4.535 0 0 1 195.849 24.711 Q 195.903 24.355 196.018 24.067 A 2.012 2.012 0 0 1 196.289 23.585 A 23.423 23.423 0 0 1 198.095 21.509 Q 199.823 19.727 202.295 17.774 A 3.62 3.62 0 0 1 202.698 17.522 Q 202.906 17.411 203.099 17.352 A 1.428 1.428 0 0 1 203.516 17.286 A 1.716 1.716 0 0 1 204.347 17.506 A 2.419 2.419 0 0 1 204.736 17.774 A 48.286 48.286 0 0 1 206.447 19.147 Q 207.466 20.005 208.276 20.801 A 27.77 27.77 0 0 1 209.747 22.357 A 21.597 21.597 0 0 1 210.742 23.585 Q 211.123 24.08 211.207 24.902 A 4.834 4.834 0 0 1 211.231 25.391 L 211.231 67.774 Q 211.231 68.702 210.596 69.361 A 2.123 2.123 0 0 1 209.075 70.019 A 2.824 2.824 0 0 1 208.984 70.02 L 201.66 70.02 A 4.748 4.748 0 0 1 200.933 69.967 A 3.574 3.574 0 0 1 200.269 69.8 A 2.311 2.311 0 0 1 199.645 69.453 Q 199.413 69.275 199.193 69.028 A 4.133 4.133 0 0 1 199.121 68.946 L 196.094 65.04 L 195.752 65.04 Q 194.971 66.163 193.335 67.628 A 9.49 9.49 0 0 1 191.902 68.671 Q 190.537 69.495 188.599 70.167 Q 185.498 71.241 180.274 71.241 Q 164.25 71.241 162.997 53.36 A 45.282 45.282 0 0 1 162.891 50.196 Z M 224.463 50.196 L 224.414 25.391 A 4.535 4.535 0 0 1 224.462 24.711 Q 224.516 24.355 224.631 24.067 A 2.012 2.012 0 0 1 224.902 23.585 A 23.423 23.423 0 0 1 226.708 21.509 Q 228.436 19.727 230.908 17.774 A 3.62 3.62 0 0 1 231.311 17.522 Q 231.52 17.411 231.712 17.352 A 1.428 1.428 0 0 1 232.129 17.286 A 1.716 1.716 0 0 1 232.96 17.506 A 2.419 2.419 0 0 1 233.35 17.774 A 48.286 48.286 0 0 1 235.061 19.147 Q 236.08 20.005 236.89 20.801 A 27.77 27.77 0 0 1 238.36 22.357 A 21.597 21.597 0 0 1 239.356 23.585 Q 239.737 24.08 239.82 24.902 A 4.834 4.834 0 0 1 239.844 25.391 L 239.844 48.829 Q 239.844 58.507 246.851 59.345 A 11.721 11.721 0 0 0 248.242 59.424 A 9.584 9.584 0 0 0 251.34 58.945 A 7.985 7.985 0 0 0 254.883 56.519 Q 257.169 53.852 257.356 49.437 A 18.931 18.931 0 0 0 257.373 48.633 L 257.373 25.391 A 4.535 4.535 0 0 1 257.421 24.711 Q 257.475 24.355 257.59 24.067 A 2.012 2.012 0 0 1 257.861 23.585 A 23.423 23.423 0 0 1 259.667 21.509 Q 261.395 19.727 263.867 17.774 A 3.62 3.62 0 0 1 264.27 17.522 Q 264.479 17.411 264.671 17.352 A 1.428 1.428 0 0 1 265.088 17.286 A 1.716 1.716 0 0 1 265.919 17.506 A 2.419 2.419 0 0 1 266.309 17.774 A 48.286 48.286 0 0 1 268.02 19.147 Q 269.038 20.005 269.849 20.801 A 27.77 27.77 0 0 1 271.319 22.357 A 21.597 21.597 0 0 1 272.315 23.585 Q 272.696 24.08 272.779 24.902 A 4.834 4.834 0 0 1 272.803 25.391 L 272.803 67.774 Q 272.803 68.702 272.168 69.361 A 2.123 2.123 0 0 1 270.648 70.019 A 2.824 2.824 0 0 1 270.557 70.02 L 263.233 70.02 A 4.748 4.748 0 0 1 262.505 69.967 A 3.574 3.574 0 0 1 261.841 69.8 A 2.311 2.311 0 0 1 261.218 69.453 Q 260.985 69.275 260.765 69.028 A 4.133 4.133 0 0 1 260.693 68.946 L 257.666 65.04 L 257.324 65.04 Q 256.543 66.163 254.907 67.628 A 9.49 9.49 0 0 1 253.475 68.671 Q 252.109 69.495 250.171 70.167 Q 247.07 71.241 241.846 71.241 Q 225.823 71.241 224.569 53.36 A 45.282 45.282 0 0 1 224.463 50.196 Z M 125.733 54.297 L 125.733 31.397 L 120.215 31.397 A 5.508 5.508 0 0 1 119.52 31.357 Q 118.769 31.261 118.353 30.938 A 1.343 1.343 0 0 1 118.189 30.787 Q 117.676 30.23 117.631 28.962 A 7.074 7.074 0 0 1 117.627 28.712 L 117.627 22.706 A 6.023 6.023 0 0 1 117.667 21.988 Q 117.776 21.079 118.189 20.63 A 1.556 1.556 0 0 1 118.737 20.259 Q 119.222 20.053 119.971 20.025 A 6.493 6.493 0 0 1 120.215 20.02 L 125.733 20.02 L 125.733 12.159 A 4.535 4.535 0 0 1 125.78 11.479 Q 125.834 11.123 125.95 10.834 A 2.012 2.012 0 0 1 126.221 10.352 A 23.423 23.423 0 0 1 128.027 8.276 Q 129.755 6.495 132.227 4.542 A 3.62 3.62 0 0 1 132.63 4.289 Q 132.838 4.179 133.031 4.12 A 1.428 1.428 0 0 1 133.447 4.053 A 1.54 1.54 0 0 1 134.102 4.206 Q 134.312 4.304 134.522 4.464 A 2.948 2.948 0 0 1 134.619 4.542 A 48.286 48.286 0 0 1 136.33 5.914 Q 137.349 6.772 138.159 7.569 A 27.77 27.77 0 0 1 139.63 9.125 A 21.597 21.597 0 0 1 140.625 10.352 Q 141.006 10.847 141.09 11.67 A 4.834 4.834 0 0 1 141.113 12.159 L 141.113 20.02 L 149.756 20.02 A 5.508 5.508 0 0 1 150.451 20.061 Q 151.202 20.157 151.618 20.479 A 1.343 1.343 0 0 1 151.782 20.63 Q 152.295 21.187 152.34 22.456 A 7.074 7.074 0 0 1 152.344 22.706 L 152.344 28.712 A 6.023 6.023 0 0 1 152.304 29.429 Q 152.195 30.339 151.782 30.787 A 1.556 1.556 0 0 1 151.234 31.159 Q 150.748 31.364 150 31.393 A 6.493 6.493 0 0 1 149.756 31.397 L 141.113 31.397 L 141.113 51.612 A 15.872 15.872 0 0 0 141.338 54.415 Q 142.242 59.424 146.777 59.424 A 7.869 7.869 0 0 0 147.72 59.37 A 6.226 6.226 0 0 0 148.389 59.254 Q 149.018 59.107 149.503 58.942 A 7.765 7.765 0 0 0 149.658 58.887 Q 150.594 58.531 151.021 58.581 A 0.687 0.687 0 0 1 151.099 58.594 A 0.553 0.553 0 0 1 151.348 58.738 Q 151.608 58.983 151.836 59.612 A 5.75 5.75 0 0 1 151.856 59.669 L 154.688 67.237 A 2.502 2.502 0 0 1 154.773 67.524 Q 154.962 68.349 154.381 68.814 A 1.729 1.729 0 0 1 154.102 68.995 Q 153.391 69.326 150.73 70.231 A 191.658 191.658 0 0 1 150.562 70.289 A 13.658 13.658 0 0 1 148.639 70.77 Q 146.633 71.136 143.759 71.218 A 60.683 60.683 0 0 1 142.041 71.241 Q 125.733 71.241 125.733 54.297 Z" fill="white"/>
<circle cx="15" cy="15" r="15" fill="#2D3C58"/>
<circle cx="30" cy="15" r="15" fill="white"/>
</svg>